<mxfile host="app.diagrams.net" modified="2024-10-15T17:21:44.735Z" agent="Mozilla/5.0 (Windows NT 10.0; Win64; x64) AppleWebKit/537.36 (KHTML, like Gecko) Chrome/129.0.0.0 Safari/537.36" version="21.6.1" etag="gikH7zEsrwLAfU_vzj8s" type="github">
  <diagram name="Page-1" id="ueqGE4ZFtUcaKFseuP9Y">
    <mxGraphModel>
      <root>
        <mxCell id="0" />
        <mxCell id="1" parent="0" />
      </root>
    </mxGraphModel>
  </diagram>
</mxfile>
